<svg transform="scale(1)" version="1.1" id="Layer_1" xmlns="http://www.w3.org/2000/svg" xmlns:xlink="http://www.w3.org/1999/xlink" x="0px" y="0px" viewBox="0 0 500 500" xml:space="preserve" class="show_show__wrapper__graphic__5Waiy "><title>React</title><style type="text/css">
	.st0{fill:#000001;}
	.st1{fill:#A04040;}
	.st2{fill:#3299F5;}
	.st3{clip-path:url(#SVGID_2_);}
	.st4{fill:#F2EBEB;}
	.st5{fill:#EA8383;}
</style><g id="character"><polygon class="st0" points="165.5,388.7 167.7,437.5 324.2,437.5 323.8,428.3 	"></polygon><path class="st1" d="M186.2,276.2c0,0-1.3,86-23.9,86.5s-22.1-110.5-22.1-110.5L186.2,276.2z"></path><path class="st2" d="M341.6,187.6c-34.1-23-112.1-34.2-137.6-10.2c0,0-17.2,1.3-40.4,34.4s-23.4,44-23.4,44l34.5,15.4
		c-9.1,56.6-12.8,116.7-12.8,116.7l161.9,40.5c0,0,12.6-51.9,22.7-106.4l44.2,24.1C390.7,346,420.9,218.4,341.6,187.6z"></path><g><defs><path id="SVGID_1_" d="M341.6,187.6c-34.1-23-112.1-34.2-137.6-10.2c0,0-17.2,1.3-40.4,34.4s-23.4,44-23.4,44l34.5,15.4
				c-9.1,56.6-12.8,116.7-12.8,116.7l161.9,40.5c0,0,12.6-51.9,22.7-106.4l44.2,24.1C390.7,346,420.9,218.4,341.6,187.6z"></path></defs><clipPath id="SVGID_2_"><use xlink:href="#SVGID_1_" style="overflow: visible;"></use></clipPath><g class="st3"><path class="st4" d="M484,441.1c0,0-0.1,0-0.1,0l-382-120.2c-0.3-0.1-0.4-0.4-0.3-0.7c0.1-0.2,0.3-0.3,0.5-0.3l382,120.2
				c0.3,0.1,0.4,0.4,0.3,0.6C484.4,441,484.2,441.1,484,441.1z"></path><path class="st4" d="M491.7,414.1h-0.1L108.3,301c-0.3-0.1-0.4-0.4-0.3-0.6c0.1-0.3,0.4-0.4,0.6-0.3l383.3,113.1
				c0.3,0.1,0.4,0.4,0.3,0.6C492.2,413.9,492,414.1,491.7,414.1z"></path><path class="st4" d="M498.9,389c0,0-0.1,0-0.1,0L114.6,279c-0.3-0.1-0.4-0.4-0.3-0.6c0.1-0.3,0.3-0.4,0.6-0.3c0,0,0,0,0,0
				L499,388c0.3,0,0.5,0.3,0.4,0.6S499.2,389,498.9,389L498.9,389z"></path><path class="st4" d="M505.7,365.1c0,0-0.1,0-0.1,0l-385-107.6c-0.3-0.1-0.4-0.3-0.3-0.6c0.1-0.3,0.4-0.4,0.6-0.4l385,107.6
				c0.3,0.1,0.4,0.3,0.4,0.6c0,0,0,0,0,0C506.2,365,506,365.1,505.7,365.1z"></path><path class="st4" d="M513.1,339.4H513l-387-99.9c-0.3-0.1-0.4-0.3-0.4-0.6s0.3-0.4,0.6-0.4l387,99.9c0.3,0,0.5,0.3,0.4,0.6
				S513.4,339.4,513.1,339.4z"></path><path class="st4" d="M519.4,317.6h-0.1l-387.7-97.5c-0.3-0.1-0.4-0.3-0.4-0.6c0,0,0,0,0,0c0.1-0.3,0.3-0.4,0.6-0.4c0,0,0,0,0,0
				l387.7,97.5c0.3,0,0.5,0.3,0.4,0.6S519.7,317.6,519.4,317.6L519.4,317.6z"></path><path class="st4" d="M523.4,303.8h-0.1l-388.1-96.1c-0.3-0.1-0.4-0.3-0.4-0.6c0,0,0,0,0,0c0.1-0.3,0.3-0.4,0.6-0.4l388.1,96.1
				c0.3,0,0.5,0.3,0.4,0.6S523.7,303.8,523.4,303.8L523.4,303.8z"></path><path class="st4" d="M526.8,291.9h-0.1l-387-99.9c-0.3-0.1-0.4-0.3-0.4-0.6s0.3-0.4,0.6-0.4l387,99.9c0.3,0,0.5,0.3,0.4,0.6
				S527,291.9,526.8,291.9L526.8,291.9z"></path><path class="st4" d="M175.3,436.7h-0.1c-0.3-0.1-0.4-0.4-0.4-0.6l92.6-323.7c0.1-0.3,0.4-0.4,0.6-0.4c0.3,0.1,0.4,0.4,0.4,0.6
				l-92.7,323.7C175.7,436.5,175.5,436.7,175.3,436.7z"></path><path class="st4" d="M155.8,430.6c0,0-0.1,0-0.1,0c-0.3-0.1-0.4-0.3-0.3-0.6c0,0,0,0,0,0l95.4-318.4c0.1-0.3,0.4-0.4,0.6-0.4
				s0.4,0.4,0.4,0.6l-95.4,318.3C156.2,430.4,156,430.6,155.8,430.6z"></path><path class="st4" d="M134.3,424.4c0,0-0.1,0-0.1,0c-0.3-0.1-0.4-0.4-0.3-0.6l70.8-247.3c0.1-0.3,0.4-0.4,0.6-0.4
				c0.3,0.1,0.4,0.4,0.4,0.6l0,0L134.8,424C134.7,424.2,134.5,424.4,134.3,424.4z"></path><path class="st4" d="M113.2,418.5h-0.1c-0.3-0.1-0.4-0.4-0.3-0.6l68.5-248.1c0.1-0.3,0.4-0.4,0.6-0.4c0.3,0.1,0.4,0.4,0.4,0.6
				l0,0l-68.5,248.1C113.6,418.3,113.4,418.5,113.2,418.5z"></path><path class="st4" d="M95.6,413.3h-0.1c-0.3-0.1-0.4-0.3-0.4-0.6L156,162.6c0.1-0.3,0.3-0.4,0.6-0.4c0,0,0,0,0,0
				c0.3,0.1,0.4,0.3,0.4,0.6L96.1,412.9C96,413.2,95.8,413.3,95.6,413.3z"></path><path class="st4" d="M76.6,407.8h-0.1c-0.3-0.1-0.4-0.3-0.4-0.6l58.6-250.8c0.1-0.3,0.3-0.4,0.6-0.4c0.3,0.1,0.4,0.3,0.4,0.6l0,0
				L77.1,407.5C77,407.7,76.8,407.8,76.6,407.8z"></path><path class="st4" d="M64.4,404.3h-0.1c-0.3-0.1-0.4-0.3-0.4-0.6c0,0,0,0,0,0l57.3-251.2c0.1-0.3,0.3-0.5,0.6-0.4s0.5,0.3,0.4,0.6
				l0,0L64.9,404C64.8,404.2,64.6,404.3,64.4,404.3z"></path><path class="st4" d="M49,400h-0.1c-0.3-0.1-0.4-0.3-0.4-0.6l60.9-250.1c0.1-0.3,0.3-0.4,0.6-0.4c0.3,0.1,0.4,0.3,0.4,0.6
				L49.5,399.6C49.5,399.8,49.2,400,49,400z"></path><path class="st4" d="M249.8,474.8c0,0-0.1,0-0.1,0c-0.3-0.1-0.4-0.4-0.3-0.6L375.8,69.7c0.1-0.3,0.3-0.4,0.6-0.3c0,0,0,0,0,0
				c0.3,0.1,0.4,0.4,0.3,0.6c0,0,0,0,0,0L250.3,474.5C250.3,474.7,250.1,474.8,249.8,474.8z"></path><path class="st4" d="M230.4,468.4c0,0-0.1,0-0.1,0c-0.3-0.1-0.4-0.3-0.3-0.6c0,0,0,0,0,0L349.3,62.1c0.1-0.3,0.4-0.4,0.6-0.3
				c0.3,0.1,0.4,0.4,0.3,0.6L230.9,468C230.8,468.2,230.6,468.4,230.4,468.4z"></path><path class="st4" d="M208.9,462.2h-0.1c-0.3-0.1-0.4-0.4-0.4-0.6L324.7,55.1c0.1-0.3,0.4-0.4,0.6-0.3c0.3,0.1,0.4,0.4,0.4,0.6
				L209.4,461.9C209.3,462.1,209.1,462.2,208.9,462.2z"></path><path class="st4" d="M187.8,456.4h-0.1c-0.3-0.1-0.4-0.4-0.3-0.6l114-407.4c0.1-0.3,0.4-0.4,0.6-0.4c0.3,0.1,0.4,0.4,0.4,0.6
				L188.3,456C188.2,456.2,188,456.4,187.8,456.4z"></path><path class="st4" d="M170.2,451.1c0,0-0.1,0-0.1,0c-0.3-0.1-0.4-0.3-0.4-0.6c0,0,0,0,0,0L276.2,41.2c0.1-0.3,0.4-0.4,0.6-0.4
				c0.3,0.1,0.4,0.4,0.4,0.6L170.7,450.8C170.6,451,170.4,451.1,170.2,451.1z"></path><path class="st4" d="M151.2,445.6h-0.1c-0.3-0.1-0.4-0.3-0.4-0.6L254.8,35c0.1-0.3,0.3-0.4,0.6-0.4c0.3,0.1,0.4,0.3,0.4,0.6
				l-104.1,410C151.6,445.5,151.4,445.6,151.2,445.6z"></path><path class="st4" d="M139,442.1h-0.1c-0.3-0.1-0.4-0.3-0.4-0.6c0,0,0,0,0,0L241.3,31.1c0.1-0.3,0.3-0.4,0.6-0.4c0,0,0,0,0,0
				c0.3,0.1,0.4,0.3,0.4,0.6c0,0,0,0,0,0L139.5,441.8C139.4,442,139.2,442.1,139,442.1z"></path><path class="st4" d="M123.6,437.7c0,0-0.1,0-0.1,0c-0.3-0.1-0.4-0.3-0.4-0.6c0,0,0,0,0,0L229.6,27.8c0.1-0.3,0.3-0.4,0.6-0.4
				c0,0,0,0,0,0c0.3,0.1,0.4,0.3,0.4,0.6c0,0,0,0,0,0L124.1,437.4C124.1,437.6,123.9,437.7,123.6,437.7z"></path><path class="st4" d="M472.8,270.7h-0.1L158.4,169.9c-0.3-0.1-0.4-0.4-0.3-0.6c0,0,0,0,0,0c0.1-0.3,0.4-0.4,0.6-0.3l314.2,100.8
				c0.3,0.1,0.4,0.4,0.3,0.6C473.2,270.6,473,270.7,472.8,270.7z"></path><path class="st4" d="M480.5,243.7c0,0-0.1,0-0.1,0L164.7,150c-0.3-0.1-0.4-0.4-0.4-0.6s0.4-0.4,0.6-0.4l0,0l315.6,93.7
				c0.3,0.1,0.4,0.4,0.3,0.6C480.9,243.5,480.7,243.7,480.5,243.7z"></path><path class="st4" d="M487.7,218.6h-0.1L171,128c-0.3-0.1-0.4-0.4-0.4-0.6s0.4-0.4,0.6-0.4l316.5,90.6c0.3,0.1,0.4,0.3,0.3,0.6
				c0,0,0,0,0,0C488.1,218.4,487.9,218.6,487.7,218.6z"></path><path class="st4" d="M494.5,194.7h-0.1L177,106.5c-0.3-0.1-0.4-0.3-0.4-0.6c0.1-0.3,0.3-0.4,0.6-0.4c0,0,0,0,0,0l317.3,88.2
				c0.3,0,0.5,0.3,0.4,0.6S494.7,194.8,494.5,194.7L494.5,194.7L494.5,194.7z"></path><path class="st4" d="M501.9,169c0,0-0.1,0-0.1,0L182.4,88.5c-0.3-0.1-0.4-0.3-0.4-0.6c0,0,0,0,0,0c0.1-0.3,0.3-0.4,0.6-0.4
				L502,168c0.3,0.1,0.4,0.3,0.4,0.6c0,0,0,0,0,0C502.3,168.8,502.1,169,501.9,169z"></path><path class="st4" d="M508.2,147.2h-0.1L188,69.1c-0.3-0.1-0.4-0.3-0.4-0.6c0,0,0,0,0,0c0.1-0.3,0.3-0.4,0.6-0.4l320.1,78.1
				c0.3,0.1,0.4,0.3,0.4,0.6C508.6,147,508.4,147.2,508.2,147.2z"></path><path class="st4" d="M512.1,133.4H512L191.5,56.6c-0.3-0.1-0.4-0.3-0.4-0.6c0.1-0.3,0.3-0.4,0.6-0.4l0,0l320.5,76.8
				c0.3,0.1,0.4,0.3,0.4,0.6C512.6,133.2,512.4,133.4,512.1,133.4z"></path><path class="st4" d="M515.5,121.5h-0.1L196,40.9c-0.3-0.1-0.4-0.3-0.4-0.6c0,0,0,0,0,0c0.1-0.3,0.3-0.4,0.6-0.4c0,0,0,0,0,0
				l319.4,80.5c0.3,0,0.5,0.3,0.4,0.6S515.8,121.5,515.5,121.5L515.5,121.5z"></path><path class="st4" d="M403.2,527c0,0-0.1,0-0.1,0c-0.3-0.1-0.4-0.3-0.3-0.6c0,0,0,0,0,0l126.4-404.5c0.1-0.3,0.3-0.4,0.6-0.3
				c0,0,0,0,0,0c0.3,0.1,0.4,0.4,0.3,0.6L403.6,526.7C403.6,526.9,403.4,527,403.2,527z"></path><path class="st4" d="M383.7,520.6c0,0-0.1,0-0.1,0c-0.3-0.1-0.4-0.3-0.3-0.6c0,0,0,0,0,0l119.4-405.7c0.1-0.3,0.4-0.4,0.6-0.3
				c0.3,0.1,0.4,0.4,0.3,0.6l0,0L384.2,520.2C384.2,520.4,384,520.6,383.7,520.6z"></path><path class="st4" d="M362.2,514.4h-0.1c-0.3-0.1-0.4-0.4-0.3-0.6L478,107.3c0.1-0.3,0.4-0.4,0.6-0.3c0.3,0.1,0.4,0.3,0.3,0.6
				c0,0,0,0,0,0L362.7,514.1C362.6,514.3,362.4,514.4,362.2,514.4z"></path><path class="st4" d="M341.1,508.6c0,0-0.1,0-0.1,0c-0.3-0.1-0.4-0.3-0.4-0.6l114.1-407.4c0.1-0.3,0.4-0.4,0.6-0.3
				c0.3,0.1,0.4,0.3,0.3,0.6c0,0,0,0,0,0l-114,407.4C341.6,508.5,341.4,508.6,341.1,508.6z"></path><path class="st4" d="M323.5,503.4c0,0-0.1,0-0.1,0c-0.3-0.1-0.4-0.3-0.4-0.6L429.5,93.4c0.1-0.3,0.3-0.4,0.6-0.4s0.4,0.3,0.4,0.6
				L324,503C323.9,503.2,323.7,503.4,323.5,503.4z"></path><path class="st4" d="M304.5,497.8h-0.1c-0.3-0.1-0.4-0.3-0.4-0.6c0,0,0,0,0,0l104.1-410c0.1-0.3,0.3-0.4,0.6-0.4
				c0.3,0.1,0.4,0.3,0.4,0.6L305,497.5C304.9,497.7,304.8,497.8,304.5,497.8z"></path><path class="st4" d="M292.3,494.4h-0.1c-0.3-0.1-0.4-0.3-0.4-0.6L394.6,83.3c0.1-0.3,0.3-0.4,0.6-0.4c0.3,0.1,0.4,0.3,0.4,0.6
				L292.8,494C292.8,494.2,292.6,494.4,292.3,494.4z"></path><path class="st4" d="M277,490c0,0-0.1,0-0.1,0c-0.3-0.1-0.4-0.3-0.4-0.6L383,80c0.1-0.3,0.3-0.4,0.6-0.4s0.4,0.3,0.4,0.6
				L277.4,489.6C277.4,489.8,277.2,490,277,490z"></path></g></g><path class="st1" d="M259.9,221.6c11.2,10.7,60.5,76.1,60.5,76.1l3.5-17.3c0,0,70.3,26.8,71.6,33c0,0,4.2,76.5-63.4,86.2
		c-41.8,6-108.5-148.3-108.5-148.3L259.9,221.6z"></path><path class="st1" d="M244.3,262.8c-2.2-2.9-28.4-13.4-28.4-13.4c1.8,3.5,0.9,9.3-1.2,12S204,251,202.1,243.7s3.9-9.6,3.9-9.6
		c-2-11.4,6.1-13,6.1-13c-2.4-7.9,6.1-9.9,6.1-9.9s-27-13.5-30.6-18.4s-2.4-7.6,3.9-5.6s57.1,17.7,69.1,35.3c0,0,16,32.1,11.9,43.9
		S244.3,262.8,244.3,262.8z"></path><path class="st0" d="M220,237.4c-1.7-0.7-3.3-1.3-4.9-1.9c-1.6-0.6-3.2-0.9-4.9-1.1c-1.6-0.2-3.2,0.1-4.6,0.8
		c-1.4,0.9-2.6,2.1-3.5,3.6c0.2-1.9,1.1-3.7,2.6-4.9c1.6-1.2,3.6-1.7,5.6-1.5c1.9,0.2,3.7,0.8,5.3,1.7
		C217.3,234.9,218.8,236,220,237.4z"></path><path class="st0" d="M224.3,225.1c-1.8-0.8-3.6-1.5-5.4-2.1c-1.7-0.6-3.5-0.9-5.4-0.9c-1.7,0.1-3.4,0.8-4.6,2
		c-1.3,1.4-2.3,3-3.1,4.8c0-2.1,0.7-4.1,1.9-5.8c0.7-0.9,1.5-1.6,2.5-2.1c1-0.5,2.1-0.8,3.2-0.8c2.1,0,4.2,0.5,6.1,1.5
		C221.3,222.5,222.9,223.7,224.3,225.1z"></path><path class="st0" d="M235.4,217.3c-2.2-0.8-4.4-1.6-6.6-2.4c-1.1-0.4-2.2-0.7-3.3-1c-1.1-0.3-2.2-0.6-3.3-0.8
		c-2.1-0.6-4.3-0.6-6.3-0.1c-1,0.3-1.9,0.9-2.6,1.7c-0.7,0.9-1.3,1.9-1.6,3c0-1.2,0.3-2.4,0.8-3.5c0.6-1.1,1.6-2,2.8-2.6
		c1.2-0.5,2.4-0.8,3.7-0.8c1.2,0,2.5,0.1,3.7,0.4c2.3,0.5,4.6,1.3,6.7,2.4C231.6,214.6,233.6,215.8,235.4,217.3z"></path><path class="st1" d="M224.2,87.5c0,0-11.1,39.9-9.5,40.5c1.6,0.6,6.3-0.8,6.3-0.8s-5.2,27.8,2.4,64.9c0,0,40.1-4.7,58.3-22
		c0,0-2.7-97.3-11-100.2S224.2,87.5,224.2,87.5z"></path><path class="st0" d="M267.5,96.7c0,0-4.4,19.7-2.3,23.2s13.6-6.6,13.6-6.6s2.4-44.7-2.3-50.2s-95.2,29-87.5,32.5s35.2-8.1,35.2-8.1
		l28.9-2.4C253.1,85.1,259.4,95,267.5,96.7z"></path><path class="st1" d="M278,113.8c0,0,14.3-6.6,9.9-19.3s-16.1,12.7-16.1,12.7L278,113.8z"></path><path class="st4" d="M253.4,105.6c0,0-13.5-5.1-18.4,6.4c-0.4,0.8,0,1.8,0.8,2.2c0.1,0,0.1,0.1,0.2,0.1
		C240.1,115.2,250.5,116.4,253.4,105.6z"></path><path class="st0" d="M254.1,105.5c-1.9-0.4-3.9-0.6-5.8-0.7c-1.9,0-3.8,0.2-5.7,0.7c-1.8,0.5-3.5,1.5-4.9,2.8
		c-1.4,1.4-2.5,3-3.1,4.8c0.3-2,1.2-3.9,2.6-5.4c1.4-1.5,3.2-2.6,5.2-3.2c1.9-0.6,4-0.8,6-0.6C250.3,104.2,252.3,104.7,254.1,105.5z
		"></path><path class="st0" d="M249.2,126.1c0.3,0.9,0.3,1.9-0.1,2.7c-0.4,0.9-1,1.6-1.7,2.2c-0.7,0.5-1.6,0.9-2.5,1.1
		c-0.4,0.1-0.9,0.1-1.3,0.1c-0.4,0-0.9-0.1-1.3-0.2c0.3-0.3,0.7-0.5,1.1-0.7c0.3-0.2,0.7-0.4,1-0.6c0.6-0.4,1.3-0.8,1.8-1.2
		C247.3,128.5,248.4,127.3,249.2,126.1z"></path><path class="st0" d="M251.1,97.9c-1.4-0.1-2.5-0.1-3.5-0.2s-2-0.1-3-0.1s-2-0.1-3.1-0.3c-0.6-0.1-1.2-0.2-1.7-0.3
		c-0.6-0.1-1.3-0.3-1.9-0.5c0.4-0.5,0.9-1,1.5-1.4c0.5-0.4,1.1-0.7,1.7-0.9c1.2-0.5,2.5-0.7,3.8-0.6c1.3,0.1,2.6,0.5,3.8,1.1
		C249.8,95.4,250.7,96.6,251.1,97.9z"></path><path class="st0" d="M240.7,105.7c0,0,3,2.2,3,5.3c0.1,1.7-1,3.3-2.6,3.9c0,0-7.4,0.9-6.1-3S240.7,105.7,240.7,105.7z"></path><path class="st0" d="M343.5,326.9c-5.5-6.4-10.9-12.8-16.2-19.3c-5.3-6.5-10.6-13.1-15.8-19.7s-10.4-13.2-15.4-19.9
		s-10.1-13.4-15-20.3c5.5,6.4,10.9,12.8,16.2,19.3c5.3,6.5,10.6,13.1,15.8,19.7s10.4,13.2,15.4,19.9S338.6,320.1,343.5,326.9z"></path><path class="st5" d="M171.5,109.8c-1,2-2.1,3.9-3.3,5.8c-1.2,1.9-2.5,3.7-3.8,5.5s-2.7,3.5-4.1,5.2c-1.4,1.7-2.9,3.3-4.6,4.9
		c1-2,2.1-3.9,3.3-5.8c1.2-1.9,2.5-3.7,3.8-5.4s2.7-3.5,4.1-5.2C168.3,112.9,169.8,111.3,171.5,109.8z"></path><path class="st5" d="M189,117.4c-2,1.9-4.1,3.7-6.2,5.4s-4.3,3.3-6.5,4.9c-2.2,1.6-4.5,3.1-6.8,4.5s-4.6,2.9-7.1,4.1
		c2-1.9,4.1-3.7,6.2-5.4s4.3-3.3,6.5-4.9s4.5-3.1,6.8-4.5S186.5,118.6,189,117.4z"></path><path class="st5" d="M170.6,145.1c0.9-0.5,1.8-1,2.8-1.3c0.9-0.3,1.9-0.6,2.9-0.7c1-0.2,2-0.3,3-0.3c1,0,2.1,0,3.1,0.2
		c-0.9,0.5-1.8,1-2.8,1.3c-1.9,0.6-3.9,1-5.9,1C172.7,145.4,171.7,145.3,170.6,145.1z"></path><path class="st0" d="M161.9,387.8c0.2-6.3,0.6-12.6,1-18.9l1.3-18.8c1-12.5,2.2-25.1,3.4-37.6c0.7-6.2,1.4-12.5,2.2-18.7
		c0.8-6.2,1.6-12.5,2.6-18.7s2.1-12.4,3.4-18.6c0.7-3.1,1.4-6.1,2.3-9.2c0.4-1.5,0.9-3,1.5-4.5c0.5-1.5,1.3-2.9,2.2-4.2
		c-0.8,1.3-1.5,2.8-1.9,4.3c-0.5,1.5-0.9,3-1.3,4.5c-0.7,3-1.3,6.1-1.9,9.2c-1.1,6.2-2,12.4-2.8,18.6c-1.6,12.5-3.1,24.9-4.4,37.4
		c-1.4,12.5-2.6,25-3.9,37.5l-1.9,18.8L161.9,387.8z"></path><path class="st4" d="M190.8,226.2l-2.4,3.2c-2.4,3.2-36.4,22.7-42.1,18.5s-45-85.1-40.6-91.8c3.7-5.5,35.6-12.9,46.5-15.4
		c2.1-0.5,4.2,0.6,5,2.6L190.8,226.2z"></path><path class="st0" d="M184.2,226.7c-6.1-13.2-11.7-26.6-17.2-40c-2.7-6.7-5.4-13.4-8-20.2s-5.2-13.5-7.7-20.3
		c3.2,6.5,6.3,13.1,9.2,19.8s5.7,13.3,8.5,20.1s5.4,13.5,8,20.2S181.9,219.8,184.2,226.7z"></path><path class="st0" d="M117.4,182.3c-1.5-3.3-3-6.5-4.4-9.9c-0.7-1.7-1.4-3.3-2-5c-0.7-1.7-1.2-3.4-1.6-5.2c-0.1-0.5-0.1-1,0-1.5
		c0.2-0.5,0.6-0.9,1-1.1c0.7-0.5,1.5-1,2.4-1.4c1.6-0.8,3.3-1.5,5-2.2s3.4-1.2,5.1-1.8c1.7-0.6,3.5-1,5.4-1.3c0.3,0,0.6,0,0.9,0.1
		c0.3,0.1,0.5,0.3,0.7,0.6c0.3,0.4,0.5,0.8,0.7,1.2c0.4,0.8,0.8,1.7,1.1,2.5c0.7,1.7,1.2,3.4,1.8,5.1c1,3.4,1.9,6.9,2.5,10.5v0.4
		c0,0.1,0,0.3,0,0.4c-0.1,0.2-0.2,0.5-0.3,0.7c-0.3,0.4-0.6,0.7-1,1c-0.7,0.6-1.5,1.1-2.2,1.6c-1.6,0.9-3.2,1.7-4.8,2.4
		c-1.7,0.7-3.3,1.4-5,2c-0.8,0.3-1.7,0.5-2.6,0.8c-0.4,0.1-0.9,0.2-1.3,0.2c-0.2,0-0.4,0-0.7,0C117.8,182.5,117.5,182.5,117.4,182.3
		z M117.4,182.3c0.1,0.2,0.4,0.2,0.6,0.2c0.2,0,0.4,0,0.7,0c0.4-0.1,0.9-0.2,1.3-0.3c0.9-0.2,1.7-0.5,2.6-0.8c1.7-0.6,3.4-1.3,5-2
		c1.6-0.7,3.2-1.6,4.7-2.6c0.8-0.5,1.5-1,2.1-1.6c0.6-0.6,1.3-1.3,1.1-2.1c-0.8-3.5-1.8-6.9-3-10.3c-0.6-1.7-1.2-3.4-1.8-5.1
		c-0.3-0.8-0.7-1.6-1.1-2.4c-0.2-0.4-0.4-0.7-0.6-1.1c-0.1-0.1-0.2-0.2-0.3-0.3c-0.2,0-0.3,0-0.5,0c-1.7,0.2-3.5,0.6-5.2,1.2
		c-1.7,0.5-3.4,1-5.1,1.7s-3.4,1.2-5,2c-0.8,0.4-1.6,0.8-2.3,1.3c-0.3,0.2-0.6,0.5-0.8,0.8c-0.1,0.4-0.1,0.8,0,1.2
		c0.3,1.8,0.8,3.5,1.4,5.2c0.6,1.7,1.2,3.4,1.9,5.1C114.5,175.7,115.9,179,117.4,182.3z"></path><path class="st0" d="M113.5,161.5c0,0,3.4-2.8,5.8,0.4s-0.6,6.6-3.3,5.4S111.7,164.2,113.5,161.5z"></path><path class="st0" d="M117.9,172.9c0,0,3.4-2.8,5.8,0.4s-0.6,6.6-3.3,5.4S116.2,175.6,117.9,172.9z"></path><path class="st0" d="M124.6,164.3c0,0,3.4-2.8,5.8,0.4c2.4,3.2-0.6,6.6-3.3,5.4S122.8,167,124.6,164.3z"></path><path class="st4" d="M124.2,159.1c0,0,1.1-0.9,1.8,0.1s-0.2,2.1-1,1.7S123.6,160,124.2,159.1z"></path><path class="st1" d="M126.3,349.8c-23.9-48.5-23-138.1-22.4-147.4c0.8-12.5,35.6-43.4,40.3-39.1s-4.8,16.2-4.8,16.2
		s18.7-5.8,1.7,15.9c0,0,19.1-10.4-5.7,25.4l8,20.7l0,0l10.1,23.5c0,0,4,62,8.8,97.8C162.3,362.7,132.6,362.5,126.3,349.8z"></path><path class="st0" d="M121.5,216.8c1.1-3,2.4-5.8,4.1-8.5c1.6-2.8,3.4-5.3,5.5-7.7c2.1-2.5,4.6-4.6,7.5-6.1c1.5-0.8,3.1-1.1,4.8-1.1
		c1.6,0.1,3.2,0.7,4.4,1.8c-1.4-0.7-2.9-1-4.4-0.8c-1.5,0.2-2.9,0.7-4.1,1.5c-1.3,0.8-2.5,1.7-3.6,2.7c-1.1,1-2.2,2.1-3.2,3.3
		c-1,1.1-2,2.3-2.9,3.6s-1.9,2.5-2.8,3.7C125,211.7,123.3,214.2,121.5,216.8z"></path><path class="st0" d="M116.5,206.4c1.5-3.2,3.2-6.2,5.2-9.1c1.9-2.9,4.1-5.7,6.4-8.4c2.3-2.7,5-5.1,7.9-7.1c1.5-1,3.1-1.8,4.8-2.4
		c1.7-0.6,3.5-0.7,5.3-0.2c-1.7-0.1-3.4,0.3-4.9,1.1c-1.5,0.8-2.9,1.7-4.2,2.8c-2.6,2.2-5.1,4.6-7.3,7.2c-2.3,2.6-4.5,5.2-6.6,8
		L116.5,206.4z"></path><path class="st0" d="M165.9,290.7c-2.9-5.7-5.7-11.4-8.4-17.2c-2.7-5.8-5.3-11.6-7.8-17.4s-5-11.7-7.4-17.6s-4.7-11.8-6.9-17.8
		c2.9,5.7,5.7,11.4,8.4,17.2c2.7,5.8,5.3,11.6,7.8,17.4s5,11.7,7.4,17.6S163.7,284.8,165.9,290.7z"></path><path class="st0" d="M328,240c-0.2,4.9-0.6,9.7-1.1,14.5s-1.1,9.6-1.7,14.4s-1.3,9.6-2.1,14.4s-1.6,9.6-2.7,14.3
		c0.2-4.9,0.6-9.7,1.1-14.5s1-9.6,1.7-14.4s1.3-9.6,2.1-14.4S326.9,244.8,328,240z"></path></g><g id="bubble"><circle class="st4" cx="438" cy="206.3" r="7.7"></circle><circle class="st4" cx="385.4" cy="111.6" r="10.2"></circle><circle class="st4" cx="63" cy="218.9" r="7.7"></circle><circle class="st4" cx="124.6" cy="77.9" r="7.1"></circle><circle class="st4" cx="103.1" cy="393.6" r="10.2"></circle><circle class="st4" cx="421.6" cy="418.9" r="10.2"></circle></g></svg>